<svg xmlns="http://www.w3.org/2000/svg" viewBox="70 0 1700 1800" width="36" height="36">
  <!-- Adding a fill color to all paths -->
  <path d="M409.544,100.976l-81.567,251.916l930.52,-0.685l-81.738,-251.917l-767.215,0.686Z" fill="#000000"/>
  <path d="M1507.5,99.948l-264.771,0.342l288.081,884.947l214.038,-155.781l-237.177,-729.508l-0.171,-0Z" fill="#000000"/>
  <path d="M1011.96,1440.31l214.381,155.438l620.192,-451.043l-82.098,-251.899l-752.304,547.333l-0.171,0.171Z" fill="#000000"/>
  <path d="M338.158,1340.23l-0,0.343l620.69,450.186l214.038,-155.781l-752.819,-546.647l-81.909,251.899Z" fill="#000000"/>
  <path d="M307.581,415.606l-236.645,729.508l214.381,155.438l287.035,-885.118l-264.771,0.343l-0,-0.171Z" fill="#000000"/>
  <path d="M638.665,415.263l-81.91,251.916l473.136,-0.342l-81.91,-251.574l-309.488,-0l0.172,-0Z" fill="#000000"/>
  <path d="M1013.97,414.92l146.68,449.843l214.038,-155.78l-95.621,-294.063l-265.097,0Z" fill="#000000"/>
  <path d="M1012.6,1050.52l214.381,155.25l250.185,-181.644l0,-0.343l-82.081,-251.899l-382.485,278.636Z" fill="#000000"/>
  <path d="M707.96,1219.59l250.545,182.005l214.038,-155.781l-383.171,-277.609l-81.412,251.385Z" fill="#000000"/>
  <path d="M536.359,730.064l-95.45,294.405l214.381,155.438l145.84,-449.843l-264.771,0Z" fill="#000000"/>
</svg>